HIERARCHY
ROOT Hips
{
	OFFSET 0.000000 0.000000 0.000000
	CHANNELS 6 Xposition Yposition Zposition Zrotation Yrotation Xrotation 
	JOINT LeftUpLeg
	{
		OFFSET 1.363060 -1.794630 0.839290
		CHANNELS 3 Zrotation Yrotation Xrotation
		JOINT LeftLeg
		{
			OFFSET 2.448110 -6.726130 0.000000
			CHANNELS 3 Zrotation Yrotation Xrotation
			JOINT LeftFoot
			{
				OFFSET 2.562200 -7.039590 0.000000
				CHANNELS 3 Zrotation Yrotation Xrotation
				JOINT LeftToeBase
				{
					OFFSET 0.157640 -0.433110 2.322550
					CHANNELS 3 Zrotation Yrotation Xrotation
				}
			}
		}
	}
	JOINT RightUpLeg
	{
		OFFSET -1.305520 -1.794630 0.839290
		CHANNELS 3 Zrotation Yrotation Xrotation
		JOINT RightLeg
		{
			OFFSET -2.542530 -6.985550 0.000000
			CHANNELS 3 Zrotation Yrotation Xrotation
			JOINT RightFoot
			{
				OFFSET -2.568260 -7.056230 0.000000
				CHANNELS 3 Zrotation Yrotation Xrotation
				JOINT RightToeBase
				{
					OFFSET -0.164730 -0.452590 2.363150
					CHANNELS 3 Zrotation Yrotation Xrotation
				}
			}
		}
	}
	JOINT Spine
	{
		OFFSET 0.028270 2.035590 -0.193380
		CHANNELS 3 Zrotation Yrotation Xrotation
		JOINT Spine1
		{
			OFFSET 0.056720 2.048850 -0.042750
			CHANNELS 3 Zrotation Yrotation Xrotation
			JOINT Neck1
			{
				OFFSET -0.054170 1.746240 0.172020
				CHANNELS 3 Zrotation Yrotation Xrotation
				JOINT Head
				{
					OFFSET 0.104070 1.761360 -0.123970
					CHANNELS 3 Zrotation Yrotation Xrotation
				}
			}
			JOINT LeftArm
			{
				OFFSET 3.362410 1.200890 -0.311210
				CHANNELS 3 Zrotation Yrotation Xrotation
				JOINT LeftForeArm
				{
					OFFSET 4.983000 -0.000000 -0.000000
					CHANNELS 3 Zrotation Yrotation Xrotation
					JOINT LeftHand
					{
						OFFSET 3.483560 -0.000000 -0.000000
						CHANNELS 3 Zrotation Yrotation Xrotation
						JOINT LeftHandIndex1
						{
							OFFSET 0.715260 -0.000000 -0.000000
							CHANNELS 3 Zrotation Yrotation Xrotation
						}
					}
				}
			}
			JOINT RightArm
			{
				OFFSET -3.136600 1.374050 -0.404650
				CHANNELS 3 Zrotation Yrotation Xrotation
				JOINT RightForeArm
				{
					OFFSET -5.241900 -0.000000 -0.000000
					CHANNELS 3 Zrotation Yrotation Xrotation
					JOINT RightHand
					{
						OFFSET -3.444170 -0.000000 -0.000000
						CHANNELS 3 Zrotation Yrotation Xrotation
						JOINT RightHandIndex1
						{
							OFFSET -0.622530 -0.000000 -0.000000
							CHANNELS 3 Zrotation Yrotation Xrotation
						}
					}
				}
			}
		}
	}
}
MOTION
Frames: 15
Frame Time: 0.016667
0.008363 16.695906 0.369128 1.773755 6.842174 30.133164 -15.861726 -8.256928 -2.605466 1.563938 10.993262 28.041857 4.480627 13.057568 54.433634 0.136398 -2.380601 -6.558701 17.941836 3.195865 -66.993788 -9.036106 -19.160028 54.415393 3.978448 -11.958647 7.140820 -3.351097 11.242799 -33.103199 6.671748 -10.578495 13.276451 3.878334 -2.963839 -7.824573 0.162598 8.016139 -17.911524 -0.236901 0.922600 0.127601 -75.905386 -0.554465 61.828944 139.179289 -42.817971 -104.125390 -0.424673 0.095598 -0.555054 16.582362 -8.667365 -2.674112 72.438779 -41.196864 36.155461 -40.082356 47.491836 -26.145960 2.626650 1.594957 -10.356310 -19.869660 4.449943 -1.171826 
0.024533 16.433037 0.908329 1.966684 8.720479 30.260313 -15.194110 -9.772520 0.307263 -0.032530 9.376604 22.537674 6.790693 13.700122 60.375061 0.156002 -2.544701 -7.013603 17.890453 2.414082 -69.462255 -8.730967 -19.176345 53.631191 3.458111 -10.978130 8.347012 -3.416495 11.340501 -33.437198 6.779449 -12.127963 11.617869 4.008509 -3.430141 -8.246816 0.762068 8.082815 -16.431205 -0.057199 1.132000 0.773398 -75.328645 -2.651765 61.447844 142.936553 -39.257949 -107.040258 -0.434033 0.153855 1.574720 17.756553 -9.787116 -3.253154 69.809881 -45.738611 39.484231 -43.496291 49.553710 -29.440048 2.563015 1.344379 -7.967435 -19.244891 6.932287 -2.166502 
0.045384 16.301601 1.532534 1.967423 8.859721 30.265152 -15.194109 -9.772520 0.307263 -0.032530 9.376603 22.537673 6.790693 13.700121 60.375062 0.156001 -2.544701 -7.013603 17.890453 2.414082 -69.462256 -8.730966 -19.176345 53.631192 3.458111 -10.978128 8.347013 -3.416495 11.340501 -33.437199 6.779449 -12.127962 11.617871 4.008509 -3.430140 -8.246819 0.762068 8.082815 -16.431204 -0.057200 1.132000 0.773399 -75.328645 -2.651764 61.447844 142.936551 -39.257950 -107.040255 -0.434034 0.153854 1.574721 17.756553 -9.787115 -3.253156 69.809879 -45.738612 39.484231 -43.496291 49.553711 -29.440049 2.563014 1.344379 -7.967436 -19.244891 6.932287 -2.166503 
0.067778 16.267082 2.213662 1.775387 7.267803 30.146452 -15.861726 -8.256929 -2.605466 1.563938 10.993262 28.041858 4.480628 13.057568 54.433633 0.136399 -2.380601 -6.558702 17.941837 3.195864 -66.993787 -9.036106 -19.160028 54.415394 3.978447 -11.958647 7.140819 -3.351097 11.242800 -33.103199 6.671748 -10.578495 13.276450 3.878334 -2.963839 -7.824573 0.162598 8.016139 -17.911525 -0.236900 0.922600 0.127602 -75.905383 -0.554465 61.828943 139.179288 -42.817969 -104.125389 -0.424673 0.095598 -0.555053 16.582359 -8.667364 -2.674112 72.438782 -41.196863 36.155458 -40.082357 47.491836 -26.145961 2.626650 1.594957 -10.356310 -19.869660 4.449943 -1.171826 
0.086645 16.296867 2.919495 0.666889 6.155351 29.740687 -15.305428 -7.170203 -6.547452 3.598954 12.756810 34.448800 3.624788 11.298692 51.666695 0.183301 -2.757398 -7.603897 18.656302 4.077096 -63.632019 -9.069154 -18.974599 54.813815 3.872509 -11.629404 6.167818 -3.718099 11.775499 -34.942201 7.700274 -9.219874 15.109811 3.597916 -2.521850 -7.952678 -0.452241 8.040548 -18.770661 -0.400400 0.785900 -0.501597 -77.217602 1.566010 60.662193 132.235266 -47.808915 -98.869767 -0.494529 0.062045 -2.736399 16.720587 -8.245788 -2.571687 74.438277 -35.998354 33.744743 -36.811910 45.272041 -23.005624 2.752757 1.591132 -11.408661 -20.616023 3.690009 -0.950649 
0.098427 16.338009 3.639136 -0.181613 5.201352 29.357477 -14.717303 -6.706440 -10.994266 6.039624 14.628234 42.008345 2.493379 9.773860 47.293316 0.109900 -2.137800 -5.886701 19.252661 4.734355 -60.284553 -9.050717 -18.722357 55.006333 3.800820 -11.399782 5.225321 -4.091797 12.281600 -36.735598 8.486285 -7.918949 16.827758 3.432274 -2.123271 -8.075585 -1.044938 7.877116 -19.491253 -0.516000 0.621500 -1.042601 -78.735067 3.295144 59.086587 122.852377 -52.525435 -91.618330 -0.589752 -0.019391 -4.965315 16.718313 -8.015528 -2.488926 76.085280 -30.617145 31.629493 -33.681902 42.941174 -20.101854 2.910026 1.538599 -11.740602 -21.397180 3.142659 -0.814582 
0.102327 16.371037 4.373337 -0.906220 4.529405 28.939744 -13.769220 -6.759433 -16.144541 8.704262 16.378799 50.031214 1.556503 8.418643 42.731795 0.037699 -1.253900 -3.447701 19.882496 5.090508 -56.861750 -8.987352 -18.418110 55.073344 3.695742 -11.119963 4.185429 -4.543798 12.850800 -38.812699 9.231295 -6.632190 18.354770 3.326303 -1.739471 -8.322896 -1.572077 7.415903 -19.865783 -0.569501 0.427900 -1.470099 -80.578873 4.521968 57.035128 108.568506 -56.604008 -80.509225 -0.757340 -0.158858 -6.787142 17.218420 -8.275641 -2.623574 77.419087 -24.919347 30.069798 -30.815134 40.533025 -17.497687 3.093384 1.410069 -11.675503 -22.207254 3.045223 -0.910653 
0.102424 16.398228 5.113495 -1.376798 3.943202 28.480610 -12.652505 -7.141603 -21.882560 11.372964 17.887222 58.199330 0.776056 7.069377 37.560177 0.001301 -0.232301 -0.638401 20.469326 5.063292 -53.331070 -8.899302 -18.073123 55.018627 3.641337 -10.968627 3.084838 -4.954299 13.332200 -40.624901 9.765586 -5.191796 19.653448 3.225823 -1.318833 -8.701593 -2.022921 6.614187 -19.903923 -0.595300 0.185400 -1.772000 -82.507316 5.337468 55.377610 89.116003 -57.739682 -64.960723 -1.003935 -0.331056 -8.135176 18.097589 -8.764012 -2.902929 78.436661 -19.084744 29.185530 -28.518488 38.290124 -15.428895 3.284754 1.308778 -12.038867 -23.051845 2.928870 -1.005565 
0.102054 16.391468 5.865281 -1.691861 3.253113 27.906541 -11.422649 -7.533829 -28.172793 13.912260 19.101466 66.227754 0.284481 5.504907 32.027865 0.010202 0.652900 1.794200 20.940214 4.819911 -49.910658 -8.897081 -17.773526 55.192365 3.592148 -10.846972 1.905299 -5.302696 13.716800 -42.114701 10.159082 -3.457960 20.728933 3.009615 -0.824159 -9.052467 -2.397763 5.567482 -19.695519 -0.647400 -0.101500 -1.996100 -84.144057 5.881677 53.813179 68.824123 -55.010482 -47.299473 -1.238710 -0.297966 -9.195664 19.560512 -8.970144 -3.300339 79.229447 -13.290960 28.930329 -27.252721 36.683553 -14.228322 3.453272 1.246542 -12.773914 -23.909208 2.737332 -1.056068 
0.102847 16.351276 6.636170 -1.972382 2.315255 27.183034 -10.135485 -7.580300 -34.774700 16.134326 19.981318 73.429833 0.179893 3.695829 26.866354 0.033197 1.176400 3.234401 21.299898 4.448390 -46.278598 -8.889768 -17.484899 55.375664 3.441555 -10.554655 0.725948 -5.599597 14.028798 -43.352897 10.476928 -1.416172 21.599925 2.587373 -0.256359 -9.232734 -2.665003 4.467797 -19.376552 -0.732399 -0.386900 -2.144401 -85.004788 6.547801 50.927208 51.714133 -50.359941 -32.257845 -1.521722 -0.130506 -9.919556 21.380009 -8.984346 -3.795403 79.959936 -7.713910 29.243604 -27.431661 36.191351 -14.169898 3.545762 1.151024 -13.167657 -24.665384 2.757372 -1.207065 
0.104010 16.281132 7.434928 -2.239998 1.052319 26.318889 -8.928252 -7.163278 -41.503489 17.920914 20.565161 79.297072 0.405864 1.712482 22.594687 0.039801 1.288300 3.542400 21.472301 4.029886 -42.232750 -8.785643 -17.167240 55.290459 3.173726 -10.073250 -0.373955 -5.870801 14.302002 -44.461101 10.642318 0.787016 22.285663 1.919637 0.342988 -9.252507 -2.715204 3.527340 -18.999294 -0.810201 -0.609800 -2.186301 -84.512774 8.116439 47.451684 39.628386 -45.312496 -22.473357 -1.895616 -0.004917 -9.906938 23.209942 -9.041160 -4.332353 80.760652 -2.583267 30.449617 -29.440966 37.143782 -15.532005 3.505544 1.012662 -13.119136 -25.106398 3.110899 -1.505486 
0.104499 16.191505 8.272084 -2.401028 -0.507494 25.403647 -7.974071 -6.418557 -48.191072 19.153943 20.931042 83.394411 0.844039 -0.351601 19.521821 0.025705 1.035599 2.846698 21.352434 3.581207 -37.686868 -8.489550 -16.771363 54.603561 2.887154 -9.597153 -1.285972 -6.139598 14.562300 -45.539599 10.499951 2.979173 22.721780 1.049338 0.933621 -9.151316 -2.508753 2.829060 -18.624026 -0.855000 -0.748000 -2.114603 -82.191530 11.379346 44.958761 32.849867 -41.822543 -17.589775 -2.230217 0.048764 -9.012085 24.660406 -9.211026 -4.800557 81.620104 1.950140 32.910061 -33.589219 39.548163 -18.643154 3.310930 0.916870 -13.205413 -24.929761 3.571504 -1.764572 
0.103991 16.100201 9.156217 -2.399501 -2.270174 24.627355 -7.342031 -5.599156 -54.701958 19.716187 21.175364 85.364978 1.398913 -2.457285 17.595885 0.005700 0.486599 1.336999 20.894521 3.125257 -32.719748 -7.913457 -16.241927 53.001048 2.671186 -9.280858 -1.725610 -6.393901 14.799501 -46.542998 9.996522 5.113715 22.715304 0.065555 1.516603 -8.992402 -2.112325 2.275623 -18.253330 -0.884399 -0.836600 -1.966701 -77.842098 16.685817 45.189760 30.783907 -41.195026 -16.469398 -2.352348 0.020501 -7.518205 25.216517 -9.799713 -5.175026 82.316522 5.643313 36.506046 -40.238084 43.127025 -24.040382 2.999994 0.911080 -13.562775 -23.983465 3.921658 -1.820346 
0.103118 16.018570 10.092072 -2.246971 -3.999093 24.055421 -6.916678 -5.030891 -60.799246 19.570628 21.379260 85.121551 2.003667 -4.527057 16.541336 0.002600 -0.328600 -0.902900 20.158973 2.592790 -27.447109 -7.039805 -15.542031 50.391078 2.567502 -9.181431 -1.390501 -6.615300 14.999201 -47.403801 9.246217 7.237761 22.133296 -0.901290 2.114146 -8.699584 -1.634671 1.571101 -17.886329 -0.909599 -0.966300 -1.816502 -71.441883 23.434841 49.036584 32.627123 -43.307758 -18.348336 -2.218721 -0.106372 -5.611257 24.816567 -10.898906 -5.448243 82.473297 8.331688 40.436405 -49.779134 47.337345 -32.452976 2.649460 0.979914 -13.701351 -22.348971 4.122933 -1.675317 
0.103468 15.950227 11.082119 -2.028872 -5.461998 23.665989 -6.480962 -4.919711 -66.204985 18.726468 21.563821 82.748170 2.606085 -6.410609 16.156671 0.042498 -1.331000 -3.659900 19.265218 1.942862 -21.940975 -5.897906 -14.642047 46.813244 2.570196 -9.293056 0.067030 -6.809796 15.169602 -48.151199 8.450721 9.466009 21.001882 -1.748684 2.770892 -8.198513 -1.165270 0.438764 -17.543633 -0.891600 -1.201700 -1.665898 -63.042138 30.365474 56.044842 37.422612 -46.983368 -22.768281 -1.932028 -0.352119 -3.464807 23.786201 -12.397456 -5.620831 81.743478 10.055347 43.463063 -62.226744 51.525296 -44.248045 2.347751 1.081023 -13.223792 -20.330083 4.368089 -1.496937 
